<svg width="32" height="32" viewBox="0 0 32 32" fill="none" xmlns="http://www.w3.org/2000/svg">
<rect width="32" height="32" rx="16" fill="white"/>
<g clip-path="url(#clip0_2048_7008)">
<path d="M8.80005 9.3998C8.80005 9.06843 9.06868 8.7998 9.40005 8.7998H10.7028C11.4021 8.7998 11.9941 9.31579 12.0897 10.0085L12.1437 10.4C15.8073 10.4099 19.3825 10.7988 22.8319 11.5297C23.1516 11.5975 23.3583 11.9087 23.2968 12.2297C22.9716 13.9242 22.5374 15.5799 22.0017 17.1893C21.9201 17.4344 21.6907 17.5998 21.4324 17.5998H12.8001C12.7086 17.5998 12.6189 17.6059 12.5312 17.6177C11.8284 17.7118 11.2408 18.172 10.9664 18.7998H21.8C22.1314 18.7998 22.4 19.0684 22.4 19.3998C22.4 19.7312 22.1314 19.9998 21.8 19.9998H10.2076C10.0406 19.9998 9.88111 19.9302 9.76757 19.8077C9.65402 19.6851 9.59669 19.5209 9.60936 19.3543C9.70857 18.0501 10.5883 16.9653 11.7827 16.5651L10.9009 10.1725C10.8873 10.0735 10.8027 9.9998 10.7028 9.9998H9.40005C9.06868 9.9998 8.80005 9.73118 8.80005 9.3998Z" fill="#111111"/>
<path d="M12.8 21.9998C12.8 22.6625 12.2628 23.1998 11.6 23.1998C10.9373 23.1998 10.4 22.6625 10.4 21.9998C10.4 21.3371 10.9373 20.7998 11.6 20.7998C12.2628 20.7998 12.8 21.3371 12.8 21.9998Z" fill="#111111"/>
<path d="M20.4 23.1998C21.0628 23.1998 21.6 22.6625 21.6 21.9998C21.6 21.3371 21.0628 20.7998 20.4 20.7998C19.7373 20.7998 19.2 21.3371 19.2 21.9998C19.2 22.6625 19.7373 23.1998 20.4 23.1998Z" fill="#111111"/>
</g>
<rect x="20" y="20" width="12" height="12" rx="6" fill="#9817FF"/>
<path d="M25.9 29.072C25.2493 29.072 24.748 28.824 24.396 28.328C24.0493 27.8267 23.876 27.1093 23.876 26.176C23.876 25.2267 24.0493 24.5093 24.396 24.024C24.748 23.5333 25.2493 23.288 25.9 23.288C26.556 23.288 27.0573 23.5333 27.404 24.024C27.7507 24.5093 27.924 25.224 27.924 26.168C27.924 27.1067 27.748 27.8267 27.396 28.328C27.0493 28.824 26.5507 29.072 25.9 29.072ZM25.9 28.376C26.3053 28.376 26.6093 28.1973 26.812 27.84C27.0147 27.4827 27.116 26.9253 27.116 26.168C27.116 25.4053 27.0147 24.8507 26.812 24.504C26.6093 24.152 26.3053 23.976 25.9 23.976C25.4947 23.976 25.1907 24.152 24.988 24.504C24.7853 24.856 24.684 25.4107 24.684 26.168C24.684 26.9253 24.7853 27.4827 24.988 27.84C25.1907 28.1973 25.4947 28.376 25.9 28.376Z" fill="white"/>
<defs>
<clipPath id="clip0_2048_7008">
<rect width="16" height="16" fill="white" transform="translate(8 8)"/>
</clipPath>
</defs>
</svg>
