<svg width="32" height="32" viewBox="0 0 32 32" fill="none" xmlns="http://www.w3.org/2000/svg">
<rect width="32" height="32" rx="16" fill="#C2F200"/>
<path fill-rule="evenodd" clip-rule="evenodd" d="M13.5823 10.3903C13.4316 9.86738 13.2007 9.82266 12.9916 9.78685C12.8223 9.75675 12.6237 9.72822 12.4252 9.69968C12.2267 9.67115 11.8985 9.69888 11.584 9.95331C11.2695 10.2077 10.4072 10.8098 10.1987 12.2607C9.99097 13.7059 10.8505 15.2584 10.9696 15.4772C11.0886 15.696 12.5483 19.0346 15.3794 20.6457C17.7341 21.9868 18.273 21.8625 18.8192 21.8892C19.3653 21.9158 20.6685 21.429 21.0171 20.7761C21.36 20.1224 21.4443 19.5353 21.3885 19.4005C21.3326 19.2657 21.1446 19.1638 20.8707 18.9746C20.5968 18.7854 19.247 17.8654 18.9893 17.7246C18.7308 17.5895 18.5396 17.5102 18.3045 17.776C18.0638 18.0411 17.4016 18.62 17.2031 18.7932C17.0045 18.9663 16.8254 18.9636 16.5515 18.7744C16.2777 18.5853 15.3693 18.1378 14.385 16.9707C13.6177 16.0653 13.1609 15.0143 13.0329 14.6963C12.9049 14.3782 13.0808 14.2422 13.2494 14.1166C13.3985 14.0055 13.5938 13.8146 13.7656 13.6665C13.9375 13.5183 14.0064 13.4014 14.1312 13.2177C14.256 13.034 14.235 12.8581 14.1823 12.7007C14.1289 12.549 13.7596 11.0093 13.5823 10.3903Z" fill="#111111"/>
</svg>
