<svg width="16" height="17" viewBox="0 0 16 17" fill="none" xmlns="http://www.w3.org/2000/svg">
<path fill-rule="evenodd" clip-rule="evenodd" d="M1.59998 4.3002C1.59998 3.96882 1.8686 3.7002 2.19998 3.7002H13.8C14.1313 3.7002 14.4 3.96882 14.4 4.3002C14.4 4.63157 14.1313 4.9002 13.8 4.9002H2.19998C1.8686 4.9002 1.59998 4.63157 1.59998 4.3002ZM1.59998 12.7002C1.59998 12.3688 1.8686 12.1002 2.19998 12.1002H8.19998C8.53135 12.1002 8.79998 12.3688 8.79998 12.7002C8.79998 13.0316 8.53135 13.3002 8.19998 13.3002H2.19998C1.8686 13.3002 1.59998 13.0316 1.59998 12.7002Z" fill="white"/>
<path fill-rule="evenodd" clip-rule="evenodd" d="M1.59998 8.4999C1.59998 8.16853 1.8686 7.8999 2.19998 7.8999H13.8C14.1313 7.8999 14.4 8.16853 14.4 8.4999C14.4 8.83127 14.1313 9.0999 13.8 9.0999H2.19998C1.8686 9.0999 1.59998 8.83127 1.59998 8.4999Z" fill="white"/>
</svg>
