<svg width="140" height="140" viewBox="0 0 140 140" fill="none" xmlns="http://www.w3.org/2000/svg">
<g clip-path="url(#clip0_2199_799)">
<path d="M108.603 10.1909C95.0152 -3.39697 72.9849 -3.39697 59.397 10.1909C45.8089 23.779 45.8091 45.8091 59.397 59.3969C45.8091 45.8091 23.779 45.8088 10.191 59.3969C-3.3971 72.985 -3.39689 95.0151 10.191 108.603C23.779 122.191 45.8089 122.191 59.397 108.603C45.8089 122.191 45.8089 144.221 59.397 157.809C72.9851 171.397 95.0149 171.397 108.603 157.809C122.191 144.221 122.191 122.191 108.603 108.603C122.191 122.191 144.221 122.191 157.809 108.603C171.397 95.0151 171.397 72.985 157.809 59.3969C144.221 45.8088 122.191 45.8091 108.603 59.3969C122.191 45.8091 122.191 23.779 108.603 10.1909Z" fill="#C2F200"/>
</g>
<defs>
<clipPath id="clip0_2199_799">
<rect width="140" height="140" rx="24" fill="white"/>
</clipPath>
</defs>
</svg>
