<svg width="40" height="41" viewBox="0 0 40 41" fill="none" xmlns="http://www.w3.org/2000/svg">
<path d="M25.8579 2.9264C22.6227 -0.308801 17.3773 -0.308801 14.1421 2.9264C10.9069 6.16166 10.9069 11.4069 14.1421 14.6421C10.9069 11.4069 5.66168 11.4069 2.42642 14.6421C-0.808833 17.8774 -0.808782 23.1226 2.42642 26.3578C5.66168 29.5931 10.9069 29.5931 14.1421 26.3578C10.9069 29.5931 10.9069 34.8383 14.1421 38.0736C17.3774 41.3088 22.6226 41.3088 25.8579 38.0736C29.0931 34.8383 29.0931 29.5931 25.8579 26.3578C29.0931 29.5931 34.3383 29.5931 37.5736 26.3578C40.8088 23.1226 40.8088 17.8774 37.5736 14.6421C34.3383 11.4069 29.0931 11.4069 25.8579 14.6421C29.0931 11.4069 29.0931 6.16166 25.8579 2.9264Z" fill="#1A1A1A" fill-opacity="0.1"/>
</svg>
