<svg width="144" height="144" viewBox="0 0 144 144" fill="none" xmlns="http://www.w3.org/2000/svg">
<path d="M109.009 15.6136C100.599 1.1859 82.0858 -3.69258 67.6582 4.71716C53.2303 13.127 48.352 31.6403 56.7618 46.068C48.352 31.6403 29.8389 26.7617 15.411 35.1716C0.983091 43.5814 -3.89517 62.0947 4.51458 76.5224C12.9245 90.9503 31.4375 95.8287 45.8654 87.4188C31.4375 95.8287 26.5591 114.342 34.969 128.77C43.3789 143.197 61.8919 148.076 76.3198 139.666C90.7477 131.256 95.6261 112.743 87.2162 98.3152C95.6261 112.743 114.139 117.621 128.567 109.212C142.995 100.802 147.873 82.2887 139.463 67.8608C131.054 53.4329 112.54 48.5546 98.1126 56.9644C112.54 48.5546 117.419 30.0415 109.009 15.6136Z" fill="#9817FF"/>
</svg>
