<svg width="16" height="16" viewBox="0 0 16 16" fill="none" xmlns="http://www.w3.org/2000/svg">
<path d="M10.2263 1.04993C8.94681 -0.229533 6.8724 -0.229533 5.59294 1.04993C4.31346 2.32941 4.31348 4.4038 5.59294 5.68326C4.31348 4.4038 2.23908 4.40378 0.959602 5.68326C-0.319877 6.96274 -0.319857 9.03714 0.959602 10.3166C2.23908 11.5961 4.31346 11.5961 5.59294 10.3166C4.31346 11.5961 4.31346 13.6705 5.59294 14.9499C6.87242 16.2294 8.94679 16.2294 10.2263 14.9499C11.5058 13.6705 11.5058 11.5961 10.2263 10.3166C11.5058 11.5961 13.5801 11.5961 14.8596 10.3166C16.1391 9.03714 16.1391 6.96274 14.8596 5.68326C13.5801 4.40378 11.5057 4.4038 10.2263 5.68326C11.5057 4.4038 11.5058 2.32941 10.2263 1.04993Z" fill="#9817FF"/>
</svg>
