<svg width="157" height="157" viewBox="0 0 157 157" fill="none" xmlns="http://www.w3.org/2000/svg">
<path d="M123.391 18.6862C115.178 2.2959 95.2093 -4.29073 78.7906 3.97461C62.3717 12.2401 55.7203 32.2274 63.9338 48.6177C55.7203 32.2274 35.7523 25.6406 19.3334 33.9061C2.91449 42.1715 -3.7369 62.1588 4.47655 78.5491C12.6901 94.9397 32.658 101.526 49.0769 93.2608C32.658 101.526 26.0065 121.513 34.2201 137.904C42.4337 154.294 62.4016 160.881 78.8205 152.615C95.2394 144.35 101.891 124.363 93.6773 107.972C101.891 124.363 121.859 130.95 138.278 122.684C154.696 114.419 161.348 94.4316 153.135 78.041C144.921 61.6504 124.953 55.064 108.534 63.3293C124.953 55.064 131.605 35.0768 123.391 18.6862Z" fill="#C2F200"/>
</svg>
