<svg width="24" height="24" viewBox="0 0 24 24" fill="none" xmlns="http://www.w3.org/2000/svg">
<g clip-path="url(#clip0_2268_290)">
<mask id="mask0_2268_290" style="mask-type:luminance" maskUnits="userSpaceOnUse" x="2" y="2" width="20" height="20">
<path d="M21.9006 2H2.09863V22H21.9006V2Z" fill="white"/>
</mask>
<g mask="url(#mask0_2268_290)">
<g filter="url(#filter0_b_2268_290)">
<path d="M2.09863 11.6C2.09863 7.07452 2.09863 4.81178 3.4906 3.40589C4.88257 2 7.12291 2 11.6036 2H12.3957C16.8763 2 19.1167 2 20.5087 3.40589C21.9006 4.81178 21.9006 7.07452 21.9006 11.6V12.4C21.9006 16.9255 21.9006 19.1882 20.5087 20.5941C19.1167 22 16.8763 22 12.3957 22H11.6036C7.12291 22 4.88257 22 3.4906 20.5941C2.09863 19.1882 2.09863 16.9255 2.09863 12.4V11.6Z" fill="white" fill-opacity="0.1"/>
</g>
<path fill-rule="evenodd" clip-rule="evenodd" d="M15.543 8.45325C14.603 7.5166 13.3528 7.00055 12.0209 7C9.27646 7 7.04287 9.22284 7.04176 11.9549C7.0414 12.8282 7.27064 13.6808 7.70638 14.4323L7 17L9.63952 16.3109C10.3668 16.7058 11.1856 16.9138 12.0189 16.9141H12.021C14.7651 16.9141 16.999 14.691 17 11.9589C17.0006 10.6348 16.4831 9.38983 15.543 8.45325ZM14.2909 12.9926C14.1666 12.9305 13.5549 12.6311 13.4408 12.5897C13.3268 12.5484 13.2438 12.5278 13.161 12.6517C13.078 12.7756 12.8396 13.0546 12.767 13.1371C12.6944 13.2198 12.6219 13.2302 12.4974 13.1682C12.4771 13.158 12.4495 13.1461 12.4153 13.1314C12.2402 13.0558 11.8946 12.9066 11.4969 12.5536C11.1271 12.2253 10.8774 11.8198 10.8048 11.6959C10.7399 11.5848 10.7908 11.5247 10.8418 11.4644C10.8477 11.4574 10.8536 11.4503 10.8594 11.4432C10.9941 11.2768 11.1289 11.1023 11.1704 11.0197C11.2119 10.9371 11.1911 10.8647 11.16 10.8028C11.1392 10.7612 11.0202 10.473 10.9129 10.2129C10.8603 10.0856 10.8106 9.96496 10.7765 9.88342C10.6872 9.67028 10.5969 9.67081 10.5243 9.67123C10.5147 9.67129 10.5055 9.67134 10.4965 9.6709C10.424 9.6673 10.3411 9.66657 10.2581 9.66657C10.1752 9.66657 10.0404 9.69751 9.9263 9.82153C9.91897 9.82949 9.9108 9.83818 9.9019 9.84762C9.77233 9.98524 9.49092 10.2841 9.49092 10.8544C9.49092 11.4604 9.93159 12.0458 9.99779 12.1338L9.99891 12.1353C10.003 12.1407 10.0103 12.1511 10.0207 12.166C10.1697 12.3786 10.9579 13.5036 12.1242 14.0048C12.421 14.1324 12.6527 14.2086 12.8335 14.2656C13.1315 14.3599 13.4026 14.3466 13.6171 14.3147C13.8561 14.2791 14.3531 14.0151 14.4568 13.726C14.5605 13.4367 14.5605 13.1888 14.5293 13.1371C14.5044 13.0956 14.4459 13.0675 14.3593 13.0259C14.3382 13.0157 14.3153 13.0047 14.2909 12.9926Z" fill="white"/>
</g>
</g>
<defs>
<filter id="filter0_b_2268_290" x="-1.90137" y="-2" width="27.802" height="28" filterUnits="userSpaceOnUse" color-interpolation-filters="sRGB">
<feFlood flood-opacity="0" result="BackgroundImageFix"/>
<feGaussianBlur in="BackgroundImageFix" stdDeviation="2"/>
<feComposite in2="SourceAlpha" operator="in" result="effect1_backgroundBlur_2268_290"/>
<feBlend mode="normal" in="SourceGraphic" in2="effect1_backgroundBlur_2268_290" result="shape"/>
</filter>
<clipPath id="clip0_2268_290">
<rect width="20" height="20" fill="white" transform="translate(2 2)"/>
</clipPath>
</defs>
</svg>
